<?xml version="1.0" standalone="no"?>
<!DOCTYPE svg PUBLIC "-//W3C//DTD SVG 20010904//EN"
 "http://www.w3.org/TR/2001/REC-SVG-20010904/DTD/svg10.dtd">
<svg version="1.0" xmlns="http://www.w3.org/2000/svg"
 width="512.000000pt" height="512.000000pt" viewBox="0 0 512.000000 512.000000"
 preserveAspectRatio="xMidYMid meet">

<g transform="translate(0.000000,512.000000) scale(0.100000,-0.100000)"
fill="#000000" stroke="none">
<path d="M2390 5114 c-651 -59 -1196 -309 -1635 -748 -204 -204 -338 -385
-463 -626 -82 -156 -81 -156 -35 -170 21 -6 45 -14 53 -17 8 -4 17 -7 20 -7 3
-1 10 -4 15 -8 6 -3 37 -12 70 -19 33 -7 62 -16 65 -19 3 -4 27 -12 55 -19 27
-7 54 -16 60 -20 5 -5 42 -16 80 -26 39 -9 84 -23 100 -30 17 -7 47 -16 68
-20 20 -4 37 -11 37 -15 0 -4 36 -15 80 -24 44 -10 82 -21 85 -26 3 -4 22 -11
42 -15 21 -4 56 -15 78 -25 22 -10 58 -21 80 -25 22 -4 45 -12 51 -17 7 -5 16
-8 20 -7 5 1 21 -3 35 -9 15 -6 43 -14 63 -17 20 -4 36 -11 36 -15 0 -4 29
-14 65 -21 36 -7 65 -16 65 -21 0 -4 8 -8 18 -8 16 0 62 -49 62 -66 0 -4 18
-31 40 -61 23 -29 37 -53 33 -53 -4 0 0 -5 10 -11 9 -5 17 -15 17 -20 0 -6 11
-25 25 -43 14 -18 25 -38 25 -43 0 -6 7 -13 15 -17 8 -3 15 -11 15 -17 0 -6
23 -42 50 -79 28 -37 50 -71 50 -74 0 -4 11 -22 25 -40 14 -18 25 -38 25 -43
0 -6 7 -13 15 -17 8 -3 15 -10 15 -16 0 -6 17 -34 38 -63 87 -120 82 -92 82
-423 l0 -295 -22 6 c-13 4 -29 14 -35 23 -7 9 -13 12 -13 8 0 -4 -13 2 -29 13
-16 12 -34 21 -39 21 -5 0 -12 7 -16 15 -3 8 -12 15 -19 15 -32 0 -45 36 -57
150 -7 63 -16 120 -21 126 -5 5 -6 27 -2 47 4 24 2 37 -6 37 -6 0 -11 11 -11
25 0 14 -10 34 -22 45 -13 10 -136 129 -273 264 -176 173 -257 246 -273 246
-12 0 -22 4 -22 9 0 4 -27 14 -60 21 -33 7 -60 17 -60 22 0 5 -9 7 -19 3 -11
-3 -22 -2 -25 3 -3 6 -35 16 -71 23 -36 7 -65 16 -65 20 0 4 -17 10 -38 14
-20 4 -50 13 -67 20 -16 7 -61 20 -100 30 -38 9 -79 20 -90 25 -11 5 -38 14
-60 20 -22 6 -49 15 -60 20 -11 5 -51 16 -90 25 -38 10 -83 23 -100 30 -16 7
-47 16 -68 20 -20 4 -37 11 -37 16 0 5 -9 9 -19 9 -21 0 -31 19 -31 61 0 16
-4 29 -9 29 -4 0 -14 41 -20 90 -22 157 -23 158 -59 50 -153 -463 -169 -959
-48 -1436 229 -901 935 -1606 1842 -1839 220 -57 387 -77 634 -77 240 0 399
18 615 71 749 184 1388 712 1706 1411 272 596 309 1247 107 1870 -17 52 -34
99 -38 103 -3 4 -12 -32 -20 -80 -7 -48 -16 -92 -20 -98 -4 -5 -11 -35 -15
-65 -9 -78 -14 -90 -35 -90 -10 0 -21 -4 -25 -9 -3 -5 -31 -15 -63 -21 -31 -7
-62 -17 -69 -22 -7 -5 -17 -7 -23 -3 -5 3 -10 2 -10 -3 0 -5 -29 -15 -65 -22
-36 -7 -65 -16 -65 -20 0 -4 -29 -13 -65 -20 -36 -7 -65 -16 -65 -20 0 -4 -36
-15 -80 -24 -44 -10 -82 -21 -85 -25 -2 -5 -31 -14 -64 -20 -33 -7 -63 -15
-65 -20 -3 -4 -31 -14 -63 -21 -32 -7 -63 -17 -70 -23 -7 -5 -17 -6 -22 -3 -5
4 -12 2 -15 -3 -4 -5 -31 -15 -61 -21 -30 -6 -69 -19 -87 -28 -39 -19 -570
-550 -563 -562 3 -5 1 -11 -3 -14 -5 -3 -15 -60 -22 -126 -7 -66 -17 -123 -22
-126 -4 -3 -8 -21 -8 -40 0 -39 -15 -74 -31 -74 -6 0 -25 -11 -43 -25 -18 -14
-38 -25 -44 -25 -7 0 -12 -5 -12 -12 0 -6 -3 -8 -6 -5 -4 3 -18 -3 -32 -13
-13 -11 -29 -20 -33 -20 -5 0 -9 136 -9 303 l0 304 45 59 c24 32 45 65 45 72
0 6 4 12 10 12 5 0 16 16 25 35 9 19 23 39 31 46 8 6 14 18 14 26 0 7 7 16 15
19 8 4 15 11 15 16 0 6 16 32 35 58 19 26 35 51 35 54 0 4 18 31 40 61 22 30
40 59 40 65 0 6 7 13 15 16 8 4 15 10 15 15 0 5 16 33 35 62 108 162 112 166
210 187 27 6 54 15 60 19 5 5 42 16 80 26 39 11 72 22 75 26 3 4 31 12 63 19
32 6 70 18 84 25 14 8 43 17 65 20 21 4 38 10 38 15 0 4 28 13 63 20 34 6 76
18 92 25 17 7 48 19 70 25 22 6 54 17 70 25 17 7 58 18 93 25 34 7 62 16 62
20 0 4 17 11 38 15 20 4 51 13 67 20 17 8 52 19 80 25 27 6 55 16 62 21 7 6
17 8 22 5 5 -4 12 -2 15 3 3 5 29 14 56 21 61 15 62 9 -22 170 -126 241 -259
421 -458 621 -399 400 -885 645 -1446 729 -134 20 -432 33 -534 24z m1030
-701 c0 -5 -9 -19 -20 -33 -11 -14 -20 -31 -20 -37 0 -7 -4 -13 -10 -13 -5 0
-17 -15 -25 -32 -8 -18 -28 -53 -45 -78 -16 -25 -35 -56 -42 -70 -7 -14 -18
-29 -25 -33 -7 -4 -13 -13 -13 -20 0 -7 -14 -30 -30 -51 -17 -22 -30 -45 -30
-52 0 -6 -7 -14 -15 -18 -8 -3 -15 -11 -15 -17 0 -30 -74 -110 -124 -134 -80
-38 -90 -54 -96 -149 -5 -65 -11 -88 -30 -114 l-24 -32 -303 0 -302 0 -26 37
c-20 30 -25 50 -25 100 0 86 -23 122 -100 157 -41 18 -64 34 -70 51 -5 14 -14
25 -20 25 -5 0 -10 4 -10 9 0 11 -61 112 -94 155 -14 18 -22 36 -19 40 4 3 1
6 -5 6 -7 0 -12 6 -12 13 0 6 -21 39 -45 71 -25 33 -45 64 -45 69 0 6 -11 25
-25 43 -14 18 -25 38 -25 44 0 6 -6 13 -14 16 -17 7 -28 44 -14 44 6 0 26 -11
44 -25 18 -14 36 -25 40 -25 4 0 14 -7 23 -15 27 -26 106 -85 114 -85 4 0 15
-7 25 -16 35 -31 147 -114 155 -114 4 0 39 -25 77 -55 38 -30 74 -55 79 -55 6
0 16 -9 23 -20 7 -11 18 -20 23 -20 6 0 26 -13 45 -30 19 -16 41 -29 48 -30 7
0 15 -7 18 -15 4 -8 11 -15 16 -15 6 0 27 -13 48 -30 21 -16 42 -30 48 -30 5
0 13 -8 17 -17 6 -17 7 -17 16 0 6 9 16 17 24 17 8 0 20 9 27 20 7 11 18 20
23 20 6 0 26 13 45 30 19 16 41 29 48 30 7 0 15 7 18 15 4 8 11 15 18 15 6 1
27 14 46 30 19 17 39 30 45 30 5 0 16 9 23 20 7 11 17 20 23 20 6 0 36 20 68
45 31 25 61 45 66 45 4 0 15 7 24 15 9 9 43 36 76 61 33 25 68 51 78 59 9 8
17 12 17 9 0 -3 29 17 64 45 35 28 68 51 74 51 5 0 15 7 22 15 13 16 30 20 30
8z m-1795 -58 c9 -19 20 -35 25 -35 6 0 10 -6 10 -13 0 -7 13 -31 30 -53 16
-21 30 -44 30 -50 0 -6 15 -31 34 -56 33 -43 63 -91 93 -150 8 -16 19 -28 24
-28 5 0 9 -6 9 -13 0 -7 12 -29 26 -48 14 -19 30 -44 35 -56 5 -13 13 -23 19
-23 19 0 10 -22 -25 -63 -41 -48 -45 -86 -14 -145 21 -39 63 -72 93 -72 9 0
16 -4 16 -10 0 -5 9 -10 20 -10 11 0 20 5 20 11 0 6 9 9 20 6 11 -3 23 0 26 5
8 12 43 -29 44 -50 0 -7 7 -15 15 -18 8 -4 15 -12 15 -18 0 -7 13 -30 30 -52
16 -21 30 -44 30 -51 0 -7 6 -16 13 -20 7 -4 18 -19 25 -33 7 -14 28 -50 47
-80 20 -30 40 -65 45 -77 5 -13 14 -23 20 -23 5 0 10 -5 10 -11 0 -6 13 -29
28 -52 16 -23 31 -50 35 -59 4 -10 11 -18 17 -18 5 0 10 -5 10 -12 0 -7 12
-29 27 -50 l26 -39 23 28 c13 15 26 37 30 47 4 11 19 37 35 59 16 22 29 46 29
53 0 7 3 14 8 16 10 4 62 82 62 93 0 4 18 32 40 61 22 30 45 65 50 79 5 14 15
25 21 25 7 0 9 3 6 6 -3 4 3 18 13 32 11 13 20 31 20 38 0 8 5 14 10 14 6 0
14 8 17 18 4 9 17 31 30 48 13 17 23 36 23 42 0 7 5 12 10 12 6 0 10 -5 10
-11 0 -6 7 -8 16 -5 9 4 23 1 30 -5 11 -9 18 -8 29 1 8 7 22 10 30 6 10 -3 32
11 62 39 l46 44 -6 61 c-3 35 -12 69 -21 79 -9 10 -13 21 -9 24 3 4 -1 7 -10
7 -24 0 -21 15 13 62 17 22 30 47 30 54 0 7 3 14 8 16 10 4 72 94 72 105 0 5
20 36 45 69 24 32 45 65 45 72 0 6 5 12 12 12 6 0 9 3 5 6 -3 4 9 27 28 52 19
25 35 49 35 54 0 5 11 24 25 42 14 18 25 38 25 43 0 6 7 13 15 17 13 5 15 -62
15 -563 l0 -569 -22 -14 c-13 -7 -41 -19 -63 -27 -22 -7 -60 -22 -85 -33 -84
-39 -105 -47 -147 -60 -24 -7 -43 -16 -43 -20 0 -3 -15 -10 -32 -13 -18 -4
-46 -15 -63 -25 -16 -9 -51 -23 -77 -31 -27 -7 -48 -16 -48 -20 0 -4 -12 -10
-27 -14 -15 -3 -46 -15 -68 -25 -22 -10 -60 -25 -83 -32 -23 -7 -42 -16 -42
-19 0 -4 -20 -12 -45 -19 -25 -7 -45 -16 -45 -19 0 -4 -19 -12 -43 -19 -47
-14 -81 -9 -137 19 -64 32 -125 57 -167 70 -24 7 -43 16 -43 21 0 4 -7 8 -17
8 -9 0 -39 11 -67 24 -28 13 -70 30 -93 37 -24 6 -43 15 -43 19 0 4 -14 10
-30 14 -28 5 -111 40 -170 70 -14 7 -38 16 -55 20 -31 8 -93 34 -155 66 l-35
18 -3 572 c-2 493 0 571 12 561 8 -7 22 -27 31 -46z m913 -397 c3 -94 0 -96
-89 -33 -35 25 -71 48 -79 52 -26 11 -70 46 -70 55 0 5 53 7 118 6 l117 -3 3
-77z m267 72 c3 -6 -5 -14 -19 -20 -14 -5 -26 -14 -26 -20 0 -5 -5 -10 -11
-10 -6 0 -25 -11 -43 -25 -18 -14 -38 -25 -43 -25 -6 0 -17 -9 -24 -20 -8 -10
-26 -22 -41 -26 l-28 -6 0 74 c0 41 3 78 7 81 10 11 221 8 228 -3z m-673 -266
c22 -22 28 -37 28 -70 0 -50 -8 -74 -24 -74 -12 0 -56 60 -56 76 0 5 -11 26
-25 46 -14 20 -25 42 -25 49 0 21 71 2 102 -27z m941 19 c-4 -10 -9 -20 -12
-23 -7 -6 -41 -78 -41 -85 1 -3 -6 -12 -14 -20 -8 -8 -16 -20 -18 -27 -2 -6
-12 -9 -21 -5 -13 5 -17 19 -17 55 0 82 30 118 102 121 22 1 26 -2 21 -16z
m-1053 -78 c22 -30 40 -59 40 -64 0 -6 9 -16 20 -23 11 -7 20 -18 20 -25 0
-19 -90 -17 -117 2 -28 20 -46 77 -38 118 14 63 23 63 75 -8z m1141 31 c15
-32 3 -109 -19 -128 -37 -33 -132 -44 -132 -16 0 5 20 37 45 69 25 33 45 63
45 69 0 9 28 29 43 30 4 0 12 -11 18 -24z m-352 -313 c-6 -16 -16 -35 -23 -43
-8 -8 -35 -55 -61 -105 -27 -49 -64 -119 -83 -155 -19 -36 -40 -75 -46 -87 -6
-13 -15 -23 -19 -23 -5 0 -6 -4 -3 -9 3 -5 -1 -14 -8 -20 -11 -10 -18 -7 -30
11 -9 12 -16 27 -16 32 0 5 -16 33 -35 62 -20 30 -43 74 -53 99 -9 25 -20 45
-23 45 -4 0 -24 35 -45 78 -20 42 -42 84 -49 92 -6 8 -15 23 -18 33 -6 16 11
17 258 17 l265 0 -11 -27z m-1001 -343 c23 -7 42 -16 42 -20 0 -4 18 -13 40
-20 22 -7 40 -17 40 -22 0 -5 6 -8 13 -6 11 2 54 -17 252 -112 44 -21 91 -42
105 -46 14 -4 27 -9 30 -13 7 -9 110 -57 148 -70 18 -5 42 -17 54 -25 19 -13
25 -13 57 4 51 26 95 44 104 42 4 -1 7 2 7 6 0 4 17 14 38 21 41 14 124 53
132 62 3 3 21 11 40 18 33 12 77 32 280 128 47 22 101 46 120 54 19 7 38 17
41 22 4 5 12 6 18 2 8 -4 0 -22 -24 -56 -19 -27 -35 -53 -35 -57 0 -5 -13 -26
-30 -48 -16 -21 -30 -45 -30 -51 0 -7 -5 -13 -10 -13 -6 0 -15 -12 -20 -26 -6
-14 -21 -40 -35 -58 -14 -18 -25 -38 -25 -44 0 -7 -4 -12 -10 -12 -5 0 -17
-15 -25 -32 -8 -18 -28 -53 -45 -78 -16 -25 -35 -56 -42 -70 -7 -14 -18 -29
-25 -33 -7 -4 -13 -14 -13 -21 0 -8 -20 -20 -45 -27 -25 -7 -45 -16 -45 -20 0
-4 -11 -10 -25 -13 -13 -3 -37 -11 -52 -18 -15 -6 -30 -12 -33 -13 -3 -1 -14
-5 -25 -9 -11 -4 -33 -12 -50 -18 -16 -6 -43 -16 -60 -23 -101 -44 -111 -45
-158 -26 -15 6 -39 14 -52 17 -14 3 -25 10 -25 14 0 4 -15 11 -33 14 -18 3
-48 14 -67 25 -19 10 -51 22 -70 26 -19 4 -46 13 -60 21 -14 7 -42 20 -63 28
-21 9 -36 20 -32 26 3 5 1 10 -4 10 -6 0 -11 6 -11 13 0 6 -21 39 -45 71 -25
33 -45 64 -45 69 0 11 -62 101 -72 105 -5 2 -8 9 -8 16 0 7 -13 32 -30 54 -16
23 -30 46 -30 50 0 5 -16 29 -35 54 -19 25 -31 48 -28 52 4 3 1 6 -5 6 -7 0
-18 15 -26 34 -8 18 -19 37 -25 40 -6 4 -9 12 -5 17 3 6 11 6 17 1 7 -4 31
-14 55 -22z m-1354 -109 c3 -5 30 -14 58 -21 29 -6 67 -18 83 -25 17 -7 58
-19 93 -26 34 -7 62 -16 62 -20 0 -4 17 -10 38 -14 20 -4 51 -13 67 -20 17 -8
56 -19 88 -26 31 -7 57 -16 57 -21 0 -5 5 -6 10 -3 6 4 16 2 23 -3 7 -5 30
-13 53 -16 22 -4 52 -13 66 -20 14 -8 50 -19 79 -27 30 -7 59 -17 66 -22 7 -5
17 -6 23 -2 5 3 10 1 10 -5 0 -5 16 -33 35 -60 19 -27 35 -52 35 -56 0 -3 14
-25 30 -49 17 -24 30 -48 30 -54 0 -6 5 -11 10 -11 6 0 15 -12 20 -26 6 -14
21 -40 35 -58 14 -18 25 -38 25 -44 0 -7 4 -12 9 -12 5 0 11 -9 14 -20 3 -11
12 -22 21 -25 9 -3 24 -8 34 -12 9 -3 25 -5 35 -4 9 1 17 -2 17 -7 0 -5 30
-14 67 -20 36 -6 71 -16 76 -21 5 -5 17 -70 25 -143 8 -73 19 -134 24 -136 11
-5 10 -32 -1 -32 -5 0 -72 32 -148 71 -76 39 -186 96 -244 126 -100 51 -108
57 -133 106 -15 29 -48 90 -72 136 -24 47 -48 87 -52 90 -5 3 -14 22 -22 41
-8 19 -17 37 -20 40 -4 3 -15 27 -25 54 -11 28 -26 51 -37 54 -10 2 -18 8 -18
12 0 4 -32 12 -72 19 -40 6 -77 15 -82 20 -6 4 -45 14 -86 21 -41 7 -79 16
-85 20 -5 4 -55 15 -110 25 -55 9 -104 21 -109 26 -6 5 -19 9 -31 9 -40 0 -63
27 -75 88 -6 31 -15 65 -21 75 -14 26 10 53 25 28z m4220 -33 c-3 -24 -13 -56
-20 -72 -8 -16 -14 -37 -14 -47 0 -23 -29 -39 -69 -39 -16 0 -32 -4 -35 -9 -3
-5 -47 -16 -98 -26 -51 -10 -97 -21 -103 -25 -5 -4 -44 -13 -85 -20 -41 -7
-79 -16 -85 -20 -5 -4 -44 -13 -85 -20 -41 -7 -81 -17 -88 -23 -7 -6 -31 -47
-53 -91 -50 -101 -82 -159 -90 -166 -3 -3 -12 -22 -20 -42 -7 -21 -16 -38 -20
-38 -5 0 -23 -32 -41 -70 -30 -65 -37 -73 -88 -97 -30 -15 -58 -26 -62 -25 -5
1 -8 -2 -8 -6 0 -4 -17 -14 -37 -21 -21 -8 -40 -17 -43 -20 -10 -12 -278 -151
-292 -151 -9 0 3 103 12 110 5 3 11 41 15 85 11 117 14 121 82 135 32 6 67 16
79 21 11 6 24 9 30 8 5 -1 17 1 27 4 9 4 24 9 32 12 8 2 20 17 25 31 6 15 24
44 40 64 16 20 27 40 23 44 -3 3 -1 6 5 6 7 0 12 5 12 12 0 6 11 26 25 44 14
18 25 37 25 41 0 5 13 27 29 49 16 21 40 59 54 84 16 28 31 44 41 42 9 -2 16
1 16 6 0 5 27 15 60 21 33 7 72 18 87 26 15 8 47 17 70 21 24 3 46 10 48 15 3
4 12 6 20 2 8 -3 15 -1 15 5 0 5 29 16 65 23 36 7 65 16 65 20 0 4 17 10 38
14 20 4 51 13 67 20 17 7 62 21 100 30 39 10 75 21 80 25 6 4 36 13 68 20 32
7 60 17 63 22 14 22 24 4 18 -34z m-224 -310 c-14 -56 -44 -90 -72 -82 -10 3
-18 1 -18 -4 0 -5 -31 -14 -70 -21 -38 -7 -72 -16 -75 -20 -2 -5 -38 -14 -80
-21 -41 -7 -75 -16 -75 -20 0 -9 -89 -24 -97 -17 -2 3 10 37 29 75 l33 70 75
12 c41 7 80 15 85 20 6 4 42 13 80 20 39 7 75 15 80 19 12 7 109 28 114 25 2
-2 -2 -27 -9 -56z m-3685 33 c5 -5 42 -14 80 -21 39 -7 72 -16 75 -21 3 -4 42
-13 87 -20 l81 -13 13 -38 c7 -21 15 -38 19 -38 5 0 30 -58 30 -72 0 -7 -75 9
-105 22 -11 5 -49 15 -85 21 -36 7 -67 15 -70 19 -3 4 -48 15 -100 25 -52 10
-100 22 -106 27 -6 4 -15 27 -18 50 -4 23 -12 45 -18 49 -6 4 -7 12 -3 19 8
13 100 6 120 -9z m1505 -350 c19 -10 50 -22 68 -25 17 -4 32 -12 32 -17 0 -6
6 -9 13 -8 12 2 44 -9 106 -39 36 -18 109 -21 120 -5 3 6 24 16 46 23 22 7 44
16 49 20 5 5 15 6 22 3 8 -3 14 -1 14 4 0 6 19 16 43 23 23 7 44 16 47 20 3 4
20 11 38 15 l32 7 -2 -313 -3 -314 -80 -40 c-44 -22 -82 -43 -85 -46 -3 -3
-21 -11 -40 -19 -19 -7 -54 -24 -78 -38 -48 -27 -107 -26 -129 3 -6 9 -14 16
-17 15 -8 -1 -158 72 -166 81 -3 3 -23 12 -45 21 l-40 16 -3 316 c-2 251 0
316 11 316 7 0 28 -8 47 -19z m-588 -411 c5 0 29 -13 53 -30 24 -16 48 -30 54
-30 6 0 11 -5 11 -10 0 -6 8 -13 18 -17 9 -4 36 -19 59 -35 23 -15 44 -28 48
-28 3 0 30 -18 60 -40 30 -22 58 -40 63 -40 5 0 26 -13 48 -30 21 -16 45 -30
52 -30 6 0 12 -5 12 -10 0 -6 12 -15 26 -21 15 -5 44 -23 65 -40 22 -17 39
-28 39 -25 0 3 22 -10 50 -29 27 -19 54 -35 60 -35 6 0 13 -7 16 -15 4 -8 10
-15 15 -15 5 0 32 -16 60 -35 50 -34 51 -35 26 -44 -14 -5 -41 -13 -61 -16
-20 -4 -36 -11 -36 -15 0 -4 -27 -13 -59 -19 -33 -6 -72 -18 -88 -26 -15 -7
-44 -16 -64 -20 -32 -6 -39 -3 -60 25 -13 17 -34 42 -46 54 -13 13 -23 27 -23
31 0 4 -29 42 -65 85 -36 43 -65 83 -65 89 0 5 -9 15 -20 21 -11 6 -20 15 -20
21 0 6 -20 35 -45 63 -25 29 -45 58 -45 64 0 6 -9 16 -20 22 -11 6 -20 15 -20
21 0 5 -29 45 -65 88 -35 43 -61 81 -57 85 3 4 8 2 10 -3 2 -6 8 -11 14 -11z
m1756 -11 c-7 -13 -43 -60 -80 -106 -38 -45 -68 -84 -68 -87 0 -3 -7 -14 -15
-23 -45 -52 -115 -143 -115 -150 0 -5 -9 -14 -20 -21 -11 -7 -20 -17 -20 -24
0 -6 -20 -35 -45 -64 -25 -28 -45 -57 -45 -62 0 -5 -7 -12 -15 -16 -8 -3 -20
-17 -25 -31 -5 -14 -14 -25 -19 -25 -5 0 -13 -9 -16 -20 -4 -12 -15 -20 -27
-20 -22 0 -90 17 -123 30 -11 5 -38 14 -60 20 -22 6 -49 15 -60 20 -11 4 -41
14 -67 20 -27 7 -48 16 -48 21 0 10 50 49 63 49 6 0 25 11 43 25 18 14 38 25
44 25 6 0 13 7 16 15 4 8 11 15 16 15 5 0 22 9 38 20 15 11 30 17 34 13 3 -3
6 -1 6 6 0 6 11 16 25 21 14 5 25 14 25 20 0 5 5 10 11 10 6 0 30 14 54 30 24
17 46 30 50 30 3 0 21 11 39 25 18 14 38 25 44 25 7 0 12 5 12 10 0 6 5 10 11
10 6 0 33 16 59 35 26 19 53 35 59 35 6 0 11 5 11 10 0 6 5 10 11 10 6 0 29
13 52 28 92 63 124 82 135 82 7 0 12 5 12 12 0 6 3 9 6 6 3 -3 -1 -16 -8 -29z
m-1413 -584 c5 -11 18 -29 28 -40 44 -49 107 -130 107 -137 0 -10 -34 -11 -44
0 -4 4 -11 7 -14 8 -4 0 -20 6 -35 12 -15 7 -40 15 -55 18 -15 4 -33 11 -40
17 -15 12 -80 11 -96 -1 -6 -5 -55 -18 -108 -28 -54 -10 -98 -21 -98 -26 0 -4
-9 -8 -20 -8 -28 0 -25 18 4 26 14 3 27 11 29 18 3 7 23 18 46 26 23 7 41 17
41 21 0 5 15 15 33 23 32 15 88 47 97 56 3 3 19 13 35 22 39 21 77 18 90 -7z
m1140 5 c22 -11 49 -25 60 -32 80 -50 121 -73 127 -71 5 2 8 -2 8 -7 0 -5 4
-10 10 -10 5 0 30 -13 56 -30 37 -23 43 -31 30 -36 -9 -3 -23 -1 -31 6 -8 7
-21 10 -30 7 -8 -4 -17 -3 -19 2 -3 4 -38 13 -78 21 -40 7 -76 17 -79 22 -8
12 -79 14 -87 2 -4 -6 -37 -18 -74 -28 -38 -10 -68 -22 -68 -27 0 -5 -9 -9
-20 -9 -11 0 -20 2 -20 4 0 9 26 53 43 71 10 11 39 46 64 78 25 31 51 57 57
57 6 0 29 -9 51 -20z m-900 -201 c-4 -5 -1 -9 5 -9 6 0 15 -11 20 -25 5 -14
14 -25 20 -25 5 0 10 -6 10 -13 0 -7 12 -29 26 -48 42 -56 45 -71 27 -156 -10
-43 -20 -80 -24 -83 -3 -3 -9 -22 -13 -42 -4 -21 -11 -38 -15 -38 -9 0 -31
107 -31 148 0 12 -4 22 -9 22 -4 0 -11 18 -14 40 -4 29 -19 55 -58 101 l-54
61 48 44 c27 24 53 41 58 38 5 -3 7 -10 4 -15z m619 -9 c7 0 25 -14 42 -31
l29 -31 -22 -15 c-13 -9 -23 -21 -23 -28 0 -6 -9 -20 -21 -31 -44 -40 -58 -71
-70 -160 -20 -158 -44 -161 -74 -9 -10 52 -22 95 -27 95 -4 0 -8 7 -8 15 0 8
5 15 10 15 6 0 10 5 10 12 0 6 11 26 25 44 14 18 29 44 35 58 5 14 14 26 20
26 5 0 10 5 10 10 0 6 7 22 17 36 14 22 18 23 25 10 5 -9 15 -16 22 -16z
m-790 -26 c16 -8 35 -14 43 -14 24 0 13 -25 -27 -59 -22 -19 -40 -39 -40 -46
0 -6 -12 -22 -26 -36 -37 -35 -61 -78 -69 -126 -4 -24 -11 -45 -16 -48 -12 -8
-49 13 -49 28 0 7 -20 38 -45 69 l-45 58 50 47 c27 26 50 52 50 57 0 6 19 30
42 53 46 47 65 49 132 17z m1039 -8 c20 -18 37 -38 37 -43 0 -5 23 -31 51 -58
61 -61 61 -76 -6 -163 -25 -33 -45 -65 -45 -71 0 -16 -17 -14 -23 3 -3 7 -9
34 -12 60 -4 25 -11 46 -16 46 -5 0 -9 7 -9 17 0 9 -31 50 -68 92 -78 87 -91
111 -62 111 11 0 20 4 20 9 0 6 32 17 91 30 3 0 22 -14 42 -33z"/>
</g>
</svg>
